<svg xmlns="http://www.w3.org/2000/svg" xmlns:xlink="http://www.w3.org/1999/xlink" width="500" zoomAndPan="magnify" viewBox="0 0 375 374.999991" height="500" preserveAspectRatio="xMidYMid meet" version="1.0"><defs><g/><clipPath id="4f9006ea42"><path d="M 226.367188 130.320312 L 254.996094 130.320312 L 254.996094 148.351562 L 226.367188 148.351562 Z M 226.367188 130.320312 " clip-rule="nonzero"/></clipPath><clipPath id="7dac82e9b9"><path d="M 157.476562 205 L 210.753906 205 L 210.753906 219.339844 L 157.476562 219.339844 Z M 157.476562 205 " clip-rule="nonzero"/></clipPath></defs><g fill="#00bf63" fill-opacity="1"><g transform="translate(97.912452, 247.940974)"><g><path d="M 12.789062 -5.738281 C 16.03125 -8.167969 15.398438 -13.679688 12.820312 -15.398438 C 9.582031 -17.585938 2.738281 -16.597656 1.328125 -15.222656 C 0.808594 -13.261719 0.875 -4.183594 1.152344 -2.738281 C 1.863281 0.925781 5.558594 1.28125 6.90625 -0.195312 C 7.082031 -1.945312 7.066406 -4.457031 7.066406 -4.734375 C 7.066406 -4.75 7.082031 -4.765625 7.082031 -4.765625 C 7.117188 -4.78125 7.132812 -4.78125 7.148438 -4.796875 C 7.164062 -4.796875 7.164062 -4.796875 7.179688 -4.796875 C 7.425781 -4.636719 10.324219 -3.90625 12.789062 -5.738281 Z M 9.5625 -10.34375 C 9.5625 -9.695312 9.335938 -9.351562 8.851562 -9.273438 C 8.445312 -9.191406 8.039062 -9.207031 7.636719 -9.207031 C 7.570312 -9.207031 7.457031 -9.335938 7.457031 -9.402344 C 7.441406 -9.96875 7.441406 -10.421875 7.441406 -11.105469 C 8.511719 -11.753906 9.5625 -11.007812 9.5625 -10.34375 Z M 9.5625 -10.34375 "/></g></g></g><g fill="#00bf63" fill-opacity="1"><g transform="translate(117.15565, 247.940974)"><g><path d="M 16.550781 -5.511719 C 17.070312 -10.035156 16.875 -10.828125 16.664062 -13.050781 C 16.308594 -17.019531 11.523438 -16.566406 10.261719 -15.269531 C 10.730469 -12.820312 10.550781 -7.425781 10.164062 -5.480469 C 9.824219 -3.695312 7.863281 -3.988281 7.617188 -5.414062 C 7.230469 -7.75 7.390625 -13.261719 7.292969 -14.101562 C 6.90625 -17.054688 2.074219 -16.46875 1.363281 -15.675781 C 0.90625 -12.320312 0.617188 -8.398438 1.039062 -5.445312 C 1.75 -0.210938 5.558594 0.4375 8.949219 0.4375 C 12.320312 0.4375 16.0625 -1.378906 16.550781 -5.511719 Z M 16.550781 -5.511719 "/></g></g></g><g fill="#00bf63" fill-opacity="1"><g transform="translate(138.391826, 247.940974)"><g><path d="M 12.660156 -6.03125 C 12.789062 -6.09375 12.902344 -6.160156 13 -6.242188 C 16.679688 -8.949219 15.125 -13.566406 12.546875 -15.300781 C 9.289062 -17.472656 2.464844 -16.484375 1.054688 -15.109375 C 0.519531 -13.144531 0.714844 -4.585938 0.988281 -3.144531 C 1.6875 0.519531 5.253906 1.039062 6.597656 -0.4375 C 6.710938 -1.230469 6.808594 -2.675781 6.871094 -4.003906 C 6.890625 -4.34375 6.90625 -4.683594 6.90625 -4.976562 C 6.9375 -4.976562 6.988281 -4.992188 7.019531 -5.007812 C 7.101562 -4.894531 7.195312 -4.765625 7.277344 -4.636719 C 8.265625 -3.078125 8.738281 -2.367188 9.140625 -1.71875 C 11.054688 1.394531 14.898438 0.957031 15.414062 -1.863281 C 15.058594 -2.835938 13.421875 -5.316406 12.660156 -6.03125 Z M 9.289062 -10.179688 C 9.289062 -9.726562 9.0625 -9.417969 8.558594 -9.335938 C 8.167969 -9.257812 7.765625 -9.273438 7.359375 -9.273438 C 7.292969 -9.273438 7.164062 -9.402344 7.164062 -9.464844 C 7.148438 -10.035156 7.164062 -10.292969 7.164062 -10.972656 C 8.398438 -11.542969 9.289062 -10.957031 9.289062 -10.179688 Z M 9.289062 -10.179688 "/></g></g></g><g fill="#00bf63" fill-opacity="1"><g transform="translate(158.07251, 247.940974)"><g><path d="M 0.890625 -3.746094 C 1.019531 -1.539062 1.6875 -0.453125 3.210938 -0.0664062 C 4.375 0.210938 8.609375 0.179688 9.953125 0 C 13.03125 -0.40625 13.453125 -3.210938 12.222656 -4.945312 C 10.488281 -4.945312 8.753906 -4.945312 7.019531 -4.945312 C 6.890625 -4.945312 6.757812 -4.945312 6.644531 -4.945312 C 6.644531 -5.285156 6.644531 -5.578125 6.644531 -5.933594 C 8.152344 -5.933594 8.640625 -5.902344 9.464844 -5.933594 C 11.847656 -6.046875 12.59375 -7.925781 11.621094 -10.082031 C 10.246094 -10.519531 7.570312 -10.34375 6.628906 -10.34375 C 6.628906 -10.667969 6.628906 -10.925781 6.628906 -11.183594 C 8.722656 -11.183594 9.09375 -11.183594 9.96875 -11.183594 C 13.875 -11.183594 13.453125 -15.203125 12.855469 -16.0625 C 9.96875 -16.292969 3.859375 -16.355469 1.152344 -16.082031 C 0.828125 -13.339844 0.761719 -5.964844 0.890625 -3.746094 Z M 0.890625 -3.746094 "/></g></g></g><g fill="#00bf63" fill-opacity="1"><g transform="translate(175.241719, 247.940974)"><g/></g></g><g fill="#00bf63" fill-opacity="1"><g transform="translate(186.934302, 247.940974)"><g><path d="M 12.789062 -5.738281 C 16.03125 -8.167969 15.398438 -13.679688 12.820312 -15.398438 C 9.582031 -17.585938 2.738281 -16.597656 1.328125 -15.222656 C 0.808594 -13.261719 0.875 -4.183594 1.152344 -2.738281 C 1.863281 0.925781 5.558594 1.28125 6.90625 -0.195312 C 7.082031 -1.945312 7.066406 -4.457031 7.066406 -4.734375 C 7.066406 -4.75 7.082031 -4.765625 7.082031 -4.765625 C 7.117188 -4.78125 7.132812 -4.78125 7.148438 -4.796875 C 7.164062 -4.796875 7.164062 -4.796875 7.179688 -4.796875 C 7.425781 -4.636719 10.324219 -3.90625 12.789062 -5.738281 Z M 9.5625 -10.34375 C 9.5625 -9.695312 9.335938 -9.351562 8.851562 -9.273438 C 8.445312 -9.191406 8.039062 -9.207031 7.636719 -9.207031 C 7.570312 -9.207031 7.457031 -9.335938 7.457031 -9.402344 C 7.441406 -9.96875 7.441406 -10.421875 7.441406 -11.105469 C 8.511719 -11.753906 9.5625 -11.007812 9.5625 -10.34375 Z M 9.5625 -10.34375 "/></g></g></g><g fill="#00bf63" fill-opacity="1"><g transform="translate(206.1775, 247.940974)"><g><path d="M 10.8125 -0.046875 C 13.082031 -0.195312 14.945312 -2.964844 13.632812 -5.414062 C 11.347656 -5.691406 8.398438 -5.722656 6.921875 -5.609375 C 6.988281 -7.636719 6.988281 -10.941406 6.792969 -12.855469 C 6.355469 -16.824219 2.546875 -16.792969 1.054688 -15.449219 C 0.421875 -11.445312 0.648438 -5.851562 0.988281 -3.566406 C 1.457031 -0.390625 4.117188 -0.046875 5.785156 -0.046875 C 5.785156 -0.046875 8.527344 0.0976562 10.8125 -0.046875 Z M 10.8125 -0.046875 "/></g></g></g><g fill="#00bf63" fill-opacity="1"><g transform="translate(224.367506, 247.940974)"><g><path d="M 0.242188 -4.894531 C -0.453125 -1.214844 1.476562 1.328125 5.460938 -0.128906 C 5.691406 -0.972656 5.949219 -1.78125 6.226562 -2.464844 C 7.261719 -2.429688 8.398438 -2.496094 9.417969 -2.449219 C 10.699219 1.992188 15.644531 -0.015625 15.871094 -1.78125 C 15.253906 -5.1875 13.566406 -10.894531 12.691406 -13.03125 C 10.84375 -17.539062 6.015625 -16.519531 3.792969 -15.789062 C 2.753906 -13.761719 0.875 -8.152344 0.242188 -4.894531 Z M 6.855469 -7.101562 C 7.164062 -8.429688 7.472656 -9.695312 7.765625 -10.972656 C 7.8125 -10.972656 7.863281 -10.972656 7.910156 -10.992188 C 8.21875 -9.695312 8.542969 -8.414062 8.851562 -7.101562 C 8.1875 -7.101562 7.554688 -7.101562 6.855469 -7.101562 Z M 6.855469 -7.101562 "/></g></g></g><g fill="#00bf63" fill-opacity="1"><g transform="translate(243.983387, 247.940974)"><g><path d="M 14.574219 -16.175781 C 12.726562 -16.160156 5.933594 -16.257812 3.890625 -16.128906 C 0.808594 -15.933594 0.582031 -12.140625 1.621094 -10.796875 C 2.675781 -10.585938 3.859375 -10.601562 4.945312 -10.683594 C 4.894531 -7.585938 5.042969 -4.230469 5.203125 -3.324219 C 5.917969 0.4375 9.464844 0.972656 10.828125 -0.535156 C 11.136719 -2.753906 11.25 -7.652344 11.136719 -10.667969 C 11.21875 -10.667969 11.621094 -10.699219 12.191406 -10.730469 C 15.820312 -10.957031 15.433594 -15.042969 14.574219 -16.175781 Z M 14.574219 -16.175781 "/></g></g></g><g fill="#00bf63" fill-opacity="1"><g transform="translate(263.43722, 247.940974)"><g><path d="M 0.890625 -3.746094 C 1.019531 -1.539062 1.6875 -0.453125 3.210938 -0.0664062 C 4.375 0.210938 8.609375 0.179688 9.953125 0 C 13.03125 -0.40625 13.453125 -3.210938 12.222656 -4.945312 C 10.488281 -4.945312 8.753906 -4.945312 7.019531 -4.945312 C 6.890625 -4.945312 6.757812 -4.945312 6.644531 -4.945312 C 6.644531 -5.285156 6.644531 -5.578125 6.644531 -5.933594 C 8.152344 -5.933594 8.640625 -5.902344 9.464844 -5.933594 C 11.847656 -6.046875 12.59375 -7.925781 11.621094 -10.082031 C 10.246094 -10.519531 7.570312 -10.34375 6.628906 -10.34375 C 6.628906 -10.667969 6.628906 -10.925781 6.628906 -11.183594 C 8.722656 -11.183594 9.09375 -11.183594 9.96875 -11.183594 C 13.875 -11.183594 13.453125 -15.203125 12.855469 -16.0625 C 9.96875 -16.292969 3.859375 -16.355469 1.152344 -16.082031 C 0.828125 -13.339844 0.761719 -5.964844 0.890625 -3.746094 Z M 0.890625 -3.746094 "/></g></g></g><g fill="#00bf63" fill-opacity="1"><g transform="translate(105.877501, 264.992722)"><g><path d="M 3.546875 -3.058594 C 3.542969 -3.050781 3.53125 -3.050781 3.523438 -3.046875 C 3.503906 -3.085938 3.476562 -3.121094 3.453125 -3.164062 C 3.0625 -3.855469 2.878906 -4.203125 2.503906 -4.839844 C 1.984375 -5.71875 0.859375 -5.570312 0.34375 -5.128906 C 0.277344 -4.488281 0.292969 -2.105469 0.335938 -0.761719 C 0.359375 -0.109375 1.417969 0.488281 2.3125 -0.238281 C 2.328125 -1.015625 2.277344 -1.382812 2.261719 -2.035156 C 2.273438 -2.035156 2.289062 -2.039062 2.300781 -2.039062 C 2.324219 -2.007812 2.351562 -1.980469 2.367188 -1.949219 C 2.492188 -1.75 2.867188 -1.023438 3.171875 -0.605469 C 3.839844 0.304688 5.015625 0.203125 5.484375 -0.265625 C 5.566406 -1.367188 5.515625 -3.867188 5.515625 -4.53125 C 5.515625 -5.449219 4.210938 -5.898438 3.546875 -5.089844 C 3.546875 -4.339844 3.546875 -3.792969 3.546875 -3.058594 Z M 3.546875 -3.058594 "/></g></g></g><g fill="#00bf63" fill-opacity="1"><g transform="translate(116.087719, 264.992722)"><g><path d="M 5.554688 -1.847656 C 5.726562 -3.367188 5.664062 -3.632812 5.59375 -4.378906 C 5.472656 -5.710938 3.867188 -5.558594 3.441406 -5.125 C 3.601562 -4.304688 3.542969 -2.492188 3.410156 -1.839844 C 3.296875 -1.242188 2.636719 -1.339844 2.558594 -1.816406 C 2.425781 -2.601562 2.480469 -4.449219 2.449219 -4.734375 C 2.316406 -5.722656 0.695312 -5.527344 0.457031 -5.261719 C 0.304688 -4.132812 0.207031 -2.816406 0.347656 -1.828125 C 0.585938 -0.0703125 1.867188 0.148438 3.003906 0.148438 C 4.132812 0.148438 5.390625 -0.460938 5.554688 -1.847656 Z M 5.554688 -1.847656 "/></g></g></g><g fill="#00bf63" fill-opacity="1"><g transform="translate(126.374093, 264.992722)"><g><path d="M 4.890625 -5.429688 C 4.269531 -5.421875 1.992188 -5.457031 1.304688 -5.414062 C 0.273438 -5.347656 0.195312 -4.074219 0.542969 -3.621094 C 0.898438 -3.550781 1.292969 -3.558594 1.660156 -3.585938 C 1.644531 -2.546875 1.691406 -1.417969 1.746094 -1.113281 C 1.984375 0.148438 3.175781 0.328125 3.632812 -0.179688 C 3.738281 -0.925781 3.773438 -2.566406 3.738281 -3.578125 C 3.765625 -3.578125 3.898438 -3.589844 4.089844 -3.601562 C 5.308594 -3.675781 5.179688 -5.046875 4.890625 -5.429688 Z M 4.890625 -5.429688 "/></g></g></g><g fill="#00bf63" fill-opacity="1"><g transform="translate(136.062108, 264.992722)"><g><path d="M 4.25 -2.023438 C 4.292969 -2.046875 4.328125 -2.066406 4.363281 -2.09375 C 5.597656 -3.003906 5.074219 -4.554688 4.210938 -5.136719 C 3.117188 -5.863281 0.828125 -5.53125 0.355469 -5.070312 C 0.175781 -4.410156 0.238281 -1.539062 0.332031 -1.054688 C 0.566406 0.175781 1.761719 0.347656 2.214844 -0.148438 C 2.253906 -0.414062 2.285156 -0.898438 2.304688 -1.34375 C 2.3125 -1.457031 2.316406 -1.570312 2.316406 -1.671875 C 2.328125 -1.671875 2.34375 -1.675781 2.355469 -1.679688 C 2.382812 -1.644531 2.414062 -1.597656 2.441406 -1.554688 C 2.773438 -1.035156 2.933594 -0.792969 3.066406 -0.578125 C 3.710938 0.46875 5 0.320312 5.171875 -0.625 C 5.054688 -0.953125 4.503906 -1.785156 4.25 -2.023438 Z M 3.117188 -3.417969 C 3.117188 -3.265625 3.039062 -3.160156 2.871094 -3.132812 C 2.742188 -3.105469 2.605469 -3.113281 2.46875 -3.113281 C 2.449219 -3.113281 2.40625 -3.15625 2.40625 -3.175781 C 2.398438 -3.367188 2.40625 -3.453125 2.40625 -3.683594 C 2.816406 -3.875 3.117188 -3.675781 3.117188 -3.417969 Z M 3.117188 -3.417969 "/></g></g></g><g fill="#00bf63" fill-opacity="1"><g transform="translate(145.826278, 264.992722)"><g><path d="M 2.234375 -4.375 C 2.035156 -5.679688 0.816406 -5.679688 0.308594 -5.234375 C 0.136719 -4.570312 0.195312 -1.566406 0.289062 -1.082031 C 0.527344 0.140625 1.71875 0.320312 2.175781 -0.175781 C 2.300781 -1.089844 2.332031 -3.722656 2.234375 -4.375 Z M 2.234375 -4.375 "/></g></g></g><g fill="#00bf63" fill-opacity="1"><g transform="translate(152.767284, 264.992722)"><g><path d="M 4.890625 -5.429688 C 4.269531 -5.421875 1.992188 -5.457031 1.304688 -5.414062 C 0.273438 -5.347656 0.195312 -4.074219 0.542969 -3.621094 C 0.898438 -3.550781 1.292969 -3.558594 1.660156 -3.585938 C 1.644531 -2.546875 1.691406 -1.417969 1.746094 -1.113281 C 1.984375 0.148438 3.175781 0.328125 3.632812 -0.179688 C 3.738281 -0.925781 3.773438 -2.566406 3.738281 -3.578125 C 3.765625 -3.578125 3.898438 -3.589844 4.089844 -3.601562 C 5.308594 -3.675781 5.179688 -5.046875 4.890625 -5.429688 Z M 4.890625 -5.429688 "/></g></g></g><g fill="#00bf63" fill-opacity="1"><g transform="translate(162.455301, 264.992722)"><g><path d="M 2.234375 -4.375 C 2.035156 -5.679688 0.816406 -5.679688 0.308594 -5.234375 C 0.136719 -4.570312 0.195312 -1.566406 0.289062 -1.082031 C 0.527344 0.140625 1.71875 0.320312 2.175781 -0.175781 C 2.300781 -1.089844 2.332031 -3.722656 2.234375 -4.375 Z M 2.234375 -4.375 "/></g></g></g><g fill="#00bf63" fill-opacity="1"><g transform="translate(169.39631, 264.992722)"><g><path d="M 3.007812 -5.546875 C 1.511719 -5.542969 0.789062 -4.726562 0.445312 -3.960938 C 0.191406 -3.398438 0.148438 -2.59375 0.308594 -1.894531 C 0.480469 -1.148438 0.875 -0.566406 1.566406 -0.210938 C 2.289062 0.164062 3.058594 0.222656 3.839844 0.03125 C 4.808594 -0.195312 5.445312 -0.792969 5.738281 -1.742188 C 5.957031 -2.457031 5.898438 -3.164062 5.640625 -3.863281 C 5.476562 -4.292969 4.863281 -5.558594 3.007812 -5.546875 Z M 3.035156 -3.601562 C 3.421875 -3.601562 3.769531 -3.246094 3.730469 -2.632812 C 3.699219 -2.019531 3.34375 -1.796875 3.058594 -1.777344 C 2.773438 -1.757812 2.355469 -1.980469 2.316406 -2.609375 C 2.273438 -3.257812 2.632812 -3.601562 3.035156 -3.601562 Z M 3.035156 -3.601562 "/></g></g></g><g fill="#00bf63" fill-opacity="1"><g transform="translate(179.82956, 264.992722)"><g><path d="M 5.554688 -1.847656 C 5.726562 -3.367188 5.664062 -3.632812 5.59375 -4.378906 C 5.472656 -5.710938 3.867188 -5.558594 3.441406 -5.125 C 3.601562 -4.304688 3.542969 -2.492188 3.410156 -1.839844 C 3.296875 -1.242188 2.636719 -1.339844 2.558594 -1.816406 C 2.425781 -2.601562 2.480469 -4.449219 2.449219 -4.734375 C 2.316406 -5.722656 0.695312 -5.527344 0.457031 -5.261719 C 0.304688 -4.132812 0.207031 -2.816406 0.347656 -1.828125 C 0.585938 -0.0703125 1.867188 0.148438 3.003906 0.148438 C 4.132812 0.148438 5.390625 -0.460938 5.554688 -1.847656 Z M 5.554688 -1.847656 "/></g></g></g><g fill="#00bf63" fill-opacity="1"><g transform="translate(190.115935, 264.992722)"><g><path d="M 3.972656 -3.0625 C 3.773438 -3.183594 3.257812 -3.425781 2.464844 -3.53125 C 2.1875 -3.570312 2.105469 -3.640625 2.105469 -3.757812 C 2.117188 -4.238281 3.449219 -4.058594 3.847656 -3.570312 C 4.472656 -3.714844 4.972656 -4.640625 4.019531 -5.269531 C 3.550781 -5.582031 2.558594 -5.671875 1.839844 -5.476562 C 0.53125 -5.128906 0.347656 -4.058594 0.417969 -3.601562 C 0.585938 -2.578125 1.570312 -2.214844 2.453125 -2.148438 C 2.859375 -2.121094 3.003906 -1.964844 2.941406 -1.746094 C 2.855469 -1.414062 2.136719 -1.425781 1.371094 -1.804688 C 0.484375 -2.246094 -0.125 -1.132812 0.402344 -0.46875 C 1.382812 0.335938 3.066406 0.203125 3.785156 -0.0859375 C 4.808594 -0.507812 5.351562 -2.207031 3.972656 -3.0625 Z M 3.972656 -3.0625 "/></g></g></g><g fill="#00bf63" fill-opacity="1"><g transform="translate(199.580933, 264.992722)"><g/></g></g><g fill="#00bf63" fill-opacity="1"><g transform="translate(206.663379, 264.992722)"><g><path d="M 3.007812 -5.546875 C 1.511719 -5.542969 0.789062 -4.726562 0.445312 -3.960938 C 0.191406 -3.398438 0.148438 -2.59375 0.308594 -1.894531 C 0.480469 -1.148438 0.875 -0.566406 1.566406 -0.210938 C 2.289062 0.164062 3.058594 0.222656 3.839844 0.03125 C 4.808594 -0.195312 5.445312 -0.792969 5.738281 -1.742188 C 5.957031 -2.457031 5.898438 -3.164062 5.640625 -3.863281 C 5.476562 -4.292969 4.863281 -5.558594 3.007812 -5.546875 Z M 3.035156 -3.601562 C 3.421875 -3.601562 3.769531 -3.246094 3.730469 -2.632812 C 3.699219 -2.019531 3.34375 -1.796875 3.058594 -1.777344 C 2.773438 -1.757812 2.355469 -1.980469 2.316406 -2.609375 C 2.273438 -3.257812 2.632812 -3.601562 3.035156 -3.601562 Z M 3.035156 -3.601562 "/></g></g></g><g fill="#00bf63" fill-opacity="1"><g transform="translate(217.096629, 264.992722)"><g><path d="M 4.292969 -1.925781 C 5.378906 -2.742188 5.167969 -4.589844 4.304688 -5.167969 C 3.214844 -5.902344 0.917969 -5.570312 0.445312 -5.109375 C 0.273438 -4.449219 0.292969 -1.402344 0.386719 -0.917969 C 0.625 0.308594 1.867188 0.429688 2.316406 -0.0664062 C 2.378906 -0.652344 2.371094 -1.496094 2.371094 -1.589844 C 2.371094 -1.59375 2.378906 -1.597656 2.378906 -1.597656 C 2.386719 -1.605469 2.394531 -1.605469 2.398438 -1.609375 C 2.40625 -1.609375 2.40625 -1.609375 2.410156 -1.609375 C 2.492188 -1.554688 3.464844 -1.3125 4.292969 -1.925781 Z M 3.210938 -3.46875 C 3.210938 -3.253906 3.132812 -3.140625 2.96875 -3.113281 C 2.835938 -3.085938 2.699219 -3.089844 2.5625 -3.089844 C 2.539062 -3.089844 2.503906 -3.132812 2.503906 -3.15625 C 2.496094 -3.34375 2.496094 -3.496094 2.496094 -3.726562 C 2.855469 -3.945312 3.210938 -3.695312 3.210938 -3.46875 Z M 3.210938 -3.46875 "/></g></g></g><g fill="#00bf63" fill-opacity="1"><g transform="translate(226.713937, 264.992722)"><g><path d="M 4.890625 -5.429688 C 4.269531 -5.421875 1.992188 -5.457031 1.304688 -5.414062 C 0.273438 -5.347656 0.195312 -4.074219 0.542969 -3.621094 C 0.898438 -3.550781 1.292969 -3.558594 1.660156 -3.585938 C 1.644531 -2.546875 1.691406 -1.417969 1.746094 -1.113281 C 1.984375 0.148438 3.175781 0.328125 3.632812 -0.179688 C 3.738281 -0.925781 3.773438 -2.566406 3.738281 -3.578125 C 3.765625 -3.578125 3.898438 -3.589844 4.089844 -3.601562 C 5.308594 -3.675781 5.179688 -5.046875 4.890625 -5.429688 Z M 4.890625 -5.429688 "/></g></g></g><g fill="#00bf63" fill-opacity="1"><g transform="translate(236.401954, 264.992722)"><g><path d="M 2.234375 -4.375 C 2.035156 -5.679688 0.816406 -5.679688 0.308594 -5.234375 C 0.136719 -4.570312 0.195312 -1.566406 0.289062 -1.082031 C 0.527344 0.140625 1.71875 0.320312 2.175781 -0.175781 C 2.300781 -1.089844 2.332031 -3.722656 2.234375 -4.375 Z M 2.234375 -4.375 "/></g></g></g><g fill="#00bf63" fill-opacity="1"><g transform="translate(243.342963, 264.992722)"><g><path d="M 3.007812 -5.546875 C 1.511719 -5.542969 0.789062 -4.726562 0.445312 -3.960938 C 0.191406 -3.398438 0.148438 -2.59375 0.308594 -1.894531 C 0.480469 -1.148438 0.875 -0.566406 1.566406 -0.210938 C 2.289062 0.164062 3.058594 0.222656 3.839844 0.03125 C 4.808594 -0.195312 5.445312 -0.792969 5.738281 -1.742188 C 5.957031 -2.457031 5.898438 -3.164062 5.640625 -3.863281 C 5.476562 -4.292969 4.863281 -5.558594 3.007812 -5.546875 Z M 3.035156 -3.601562 C 3.421875 -3.601562 3.769531 -3.246094 3.730469 -2.632812 C 3.699219 -2.019531 3.34375 -1.796875 3.058594 -1.777344 C 2.773438 -1.757812 2.355469 -1.980469 2.316406 -2.609375 C 2.273438 -3.257812 2.632812 -3.601562 3.035156 -3.601562 Z M 3.035156 -3.601562 "/></g></g></g><g fill="#00bf63" fill-opacity="1"><g transform="translate(253.776213, 264.992722)"><g><path d="M 3.546875 -3.058594 C 3.542969 -3.050781 3.53125 -3.050781 3.523438 -3.046875 C 3.503906 -3.085938 3.476562 -3.121094 3.453125 -3.164062 C 3.0625 -3.855469 2.878906 -4.203125 2.503906 -4.839844 C 1.984375 -5.71875 0.859375 -5.570312 0.34375 -5.128906 C 0.277344 -4.488281 0.292969 -2.105469 0.335938 -0.761719 C 0.359375 -0.109375 1.417969 0.488281 2.3125 -0.238281 C 2.328125 -1.015625 2.277344 -1.382812 2.261719 -2.035156 C 2.273438 -2.035156 2.289062 -2.039062 2.300781 -2.039062 C 2.324219 -2.007812 2.351562 -1.980469 2.367188 -1.949219 C 2.492188 -1.75 2.867188 -1.023438 3.171875 -0.605469 C 3.839844 0.304688 5.015625 0.203125 5.484375 -0.265625 C 5.566406 -1.367188 5.515625 -3.867188 5.515625 -4.53125 C 5.515625 -5.449219 4.210938 -5.898438 3.546875 -5.089844 C 3.546875 -4.339844 3.546875 -3.792969 3.546875 -3.058594 Z M 3.546875 -3.058594 "/></g></g></g><g fill="#00bf63" fill-opacity="1"><g transform="translate(263.986433, 264.992722)"><g><path d="M 3.972656 -3.0625 C 3.773438 -3.183594 3.257812 -3.425781 2.464844 -3.53125 C 2.1875 -3.570312 2.105469 -3.640625 2.105469 -3.757812 C 2.117188 -4.238281 3.449219 -4.058594 3.847656 -3.570312 C 4.472656 -3.714844 4.972656 -4.640625 4.019531 -5.269531 C 3.550781 -5.582031 2.558594 -5.671875 1.839844 -5.476562 C 0.53125 -5.128906 0.347656 -4.058594 0.417969 -3.601562 C 0.585938 -2.578125 1.570312 -2.214844 2.453125 -2.148438 C 2.859375 -2.121094 3.003906 -1.964844 2.941406 -1.746094 C 2.855469 -1.414062 2.136719 -1.425781 1.371094 -1.804688 C 0.484375 -2.246094 -0.125 -1.132812 0.402344 -0.46875 C 1.382812 0.335938 3.066406 0.203125 3.785156 -0.0859375 C 4.808594 -0.507812 5.351562 -2.207031 3.972656 -3.0625 Z M 3.972656 -3.0625 "/></g></g></g><path fill="#9ed31f" d="M 170.078125 182.164062 C 170.078125 182.164062 171.332031 167.460938 178.121094 155.152344 C 184.914062 142.847656 188.152344 140.339844 188.679688 141.59375 C 189.203125 142.847656 176.972656 158.804688 174.675781 174.964844 C 172.375 191.136719 171.539062 196.976562 173.214844 198.640625 C 174.878906 200.3125 175.875 199.113281 176.082031 197.8125 C 176.292969 196.503906 177.078125 181.90625 177.8125 180.34375 C 178.539062 178.773438 180.890625 181.960938 184.550781 178.617188 C 188.207031 175.28125 191.785156 169.179688 191.5 167.722656 C 191.210938 166.261719 188.988281 165.324219 188.988281 165.324219 C 188.988281 165.324219 198.660156 161.460938 198.761719 157.765625 C 198.863281 154.058594 194.320312 153.539062 194.320312 153.539062 C 194.320312 153.539062 203.515625 147.074219 202.316406 143.109375 C 201.113281 139.144531 193.800781 140.65625 193.640625 139.820312 C 193.484375 138.984375 198.082031 131.636719 196.203125 128.246094 C 194.320312 124.855469 186.222656 126.9375 184.234375 132.054688 C 182.25 137.164062 180.417969 140.292969 180.054688 140.238281 C 179.691406 140.183594 177.757812 134.609375 174.359375 136.226562 C 170.960938 137.839844 169.445312 141.492188 170.960938 146.339844 C 172.480469 151.1875 171.59375 154.058594 170.234375 153.484375 C 168.875 152.90625 168.5625 149.257812 165.742188 150.929688 C 162.921875 152.601562 163.386719 156.558594 164.585938 160.578125 C 165.789062 164.589844 166.46875 165.425781 165.636719 166.363281 C 164.800781 167.304688 161.664062 168.1875 163.601562 172.570312 C 165.527344 176.953125 169.5 178.726562 170.078125 182.164062 " fill-opacity="1" fill-rule="evenodd"/><path fill="#f17e00" d="M 197.402344 170.332031 C 197.402344 170.332031 209.3125 138.828125 215.382812 130.484375 C 221.441406 122.144531 225.722656 120.054688 229.59375 121.828125 C 232.222656 123.035156 232.671875 125.0625 231.710938 127.8125 C 227.175781 140.726562 211.011719 153.820312 203.375 173.878906 L 197.402344 170.332031 " fill-opacity="1" fill-rule="evenodd"/><path fill="#f17e00" d="M 183.816406 193.484375 C 183.816406 193.484375 189.148438 174.605469 192.285156 174.550781 C 195.417969 174.5 187.6875 195.667969 187.6875 195.667969 C 187.6875 195.667969 192.339844 197.703125 193.328125 196.765625 C 194.320312 195.828125 199.703125 177.109375 202.632812 177.214844 C 205.554688 177.316406 197.617188 197.441406 197.617188 197.441406 C 197.617188 197.441406 203.730469 196.664062 207.386719 187.585938 C 211.042969 178.515625 209.496094 168.792969 205.609375 165.371094 C 204.621094 164.503906 203.019531 163.960938 201.195312 163.730469 C 183.230469 161.476562 179.429688 190.496094 183.816406 193.484375 " fill-opacity="1" fill-rule="evenodd"/><g clip-path="url(#4f9006ea42)"><path fill="#e9cd5f" d="M 231.789062 138.796875 C 234.71875 135.261719 239.0625 132.125 242.035156 131.148438 C 248.054688 129.167969 257.5625 132.882812 254.363281 137.800781 C 250.730469 143.382812 231.140625 142.761719 226.402344 148.304688 C 227.894531 144.78125 229.246094 141.847656 231.789062 138.796875 " fill-opacity="1" fill-rule="evenodd"/></g><path fill="#77972a" d="M 160.882812 142.53125 C 160.882812 142.53125 152.730469 136.949219 154.816406 127.152344 C 156.910156 117.34375 163.386719 115.46875 166.785156 112.597656 C 170.179688 109.734375 170.914062 106.863281 171.484375 107.488281 C 172.058594 108.109375 177.273438 125.21875 174.460938 133.039062 C 171.65625 140.867188 165.21875 141.539062 165.21875 141.539062 C 165.21875 141.539062 164.121094 134.972656 165.265625 128.554688 C 166.421875 122.144531 167.519531 118.699219 167.519531 118.699219 C 160.820312 127.539062 161.394531 133.8125 163 142.113281 C 163.457031 144.480469 160.882812 142.53125 160.882812 142.53125 " fill-opacity="1" fill-rule="evenodd"/><path fill="#9ed31f" d="M 159.058594 192.261719 C 159.058594 192.261719 151.460938 176.285156 144.777344 173.523438 C 138.09375 170.765625 130.265625 172.027344 128.1875 167.546875 C 126.117188 163.0625 130.144531 160.074219 130.144531 160.074219 C 130.144531 160.074219 120.238281 157.652344 120.121094 151.332031 C 120.011719 145.007812 125.824219 145.640625 128.132812 146.332031 C 130.4375 147.015625 129.570312 145.179688 128.882812 143.800781 C 128.1875 142.421875 120.761719 137.195312 120.414062 131.90625 C 120.066406 126.613281 126.75 122.824219 130.320312 126.613281 C 133.890625 130.40625 137.351562 137.707031 138.667969 137.078125 C 139.996094 136.445312 141.433594 130.179688 145.003906 131.210938 C 148.574219 132.246094 149.5 138.054688 149.042969 142.25 C 148.574219 146.449219 149.324219 147.996094 150.359375 147.59375 C 151.402344 147.191406 153.363281 141.5625 156.355469 143.226562 C 159.351562 144.898438 159.230469 150.351562 158.425781 158.976562 C 157.621094 167.601562 153.765625 169.960938 156.585938 177.605469 C 159.40625 185.246094 162.519531 190.425781 161.824219 191.980469 C 161.136719 193.523438 159.058594 192.261719 159.058594 192.261719 " fill-opacity="1" fill-rule="evenodd"/><path fill="#f42805" d="M 136.269531 152.261719 C 143.25 152.136719 148.046875 152.152344 148.859375 153.167969 C 150.125 154.753906 140.542969 158.101562 134.632812 159.867188 C 138.921875 186.320312 155.296875 207.140625 184.089844 206.605469 C 213.492188 206.058594 226.8125 185.121094 229.820312 158.09375 C 221.8125 158.148438 197.339844 158.09375 193.585938 155.570312 C 191.074219 153.878906 216.398438 152.75 232.933594 152.496094 C 240.515625 152.378906 247.738281 152.140625 245.96875 160.871094 C 239.695312 191.757812 215.121094 214.8125 185.75 214.8125 C 156.980469 214.8125 132.800781 192.679688 125.945312 162.730469 C 123.390625 151.605469 127.277344 152.410156 136.269531 152.261719 " fill-opacity="1" fill-rule="evenodd"/><g clip-path="url(#7dac82e9b9)"><path fill="#f42805" d="M 157.90625 205.003906 C 157.597656 212.351562 157.128906 215.378906 160.914062 217.035156 C 167.921875 220.109375 200.253906 220.109375 207.253906 217.035156 C 211.035156 215.378906 210.578125 212.351562 210.269531 205.003906 L 183.710938 208.96875 L 157.90625 205.003906 " fill-opacity="1" fill-rule="evenodd"/></g><path fill="#ffffff" d="M 224.734375 192.492188 C 224.734375 192.492188 231.835938 177.679688 234.246094 169.132812 C 236.644531 160.578125 236.488281 158.386719 237.429688 158.386719 C 238.367188 158.386719 241.140625 159.269531 238.945312 166.679688 C 237.894531 170.226562 233.960938 178.703125 230.800781 184.0625 C 227.363281 189.898438 224.734375 192.492188 224.734375 192.492188 " fill-opacity="1" fill-rule="evenodd"/><path fill="#e9cd5f" d="M 191.816406 111.871094 C 193.65625 111.871094 195.160156 113.363281 195.160156 115.207031 C 195.160156 117.050781 193.65625 118.542969 191.816406 118.542969 C 189.96875 118.542969 188.46875 117.050781 188.46875 115.207031 C 188.46875 113.363281 189.96875 111.871094 191.816406 111.871094 Z M 206.027344 121.363281 C 208.105469 121.363281 209.789062 123.042969 209.789062 125.117188 C 209.789062 127.191406 208.105469 128.871094 206.027344 128.871094 C 203.949219 128.871094 202.257812 127.191406 202.257812 125.117188 C 202.257812 123.042969 203.949219 121.363281 206.027344 121.363281 Z M 210.886719 111.761719 C 212.410156 111.761719 213.652344 113 213.652344 114.527344 C 213.652344 116.058594 212.410156 117.296875 210.886719 117.296875 C 209.351562 117.296875 208.113281 116.058594 208.113281 114.527344 C 208.113281 113 209.351562 111.761719 210.886719 111.761719 Z M 144.261719 115.941406 C 146.402344 115.941406 148.132812 117.667969 148.132812 119.796875 C 148.132812 121.921875 146.402344 123.65625 144.261719 123.65625 C 142.128906 123.65625 140.398438 121.921875 140.398438 119.796875 C 140.398438 117.667969 142.128906 115.941406 144.261719 115.941406 " fill-opacity="1" fill-rule="evenodd"/></svg>